<svg xmlns="http://www.w3.org/2000/svg" viewBox="0 0 643.95 180.29"><defs><style>.cls-1{fill:#1c1b1b;}</style></defs><g id="Layer_2" data-name="Layer 2"><g id="icon"><g id="transport_icon" data-name="transport icon"><path class="cls-1" d="M555.37,107.55a53.33,53.33,0,0,1,2,5.47A53.33,53.33,0,0,0,555.37,107.55Z"/><path class="cls-1" d="M559.66,127c0,.39,0,.78,0,1.18,0-.05,0-.09,0-.14C559.71,127.69,559.66,127.35,559.66,127Z"/><path class="cls-1" d="M480.56,173.17a43.68,43.68,0,0,0,9.87,4.22,52.14,52.14,0,0,1-8.16-3.58C481.69,173.6,481.11,173.39,480.56,173.17Z"/><path class="cls-1" d="M556.42,123.17c-.72-19-14.12-34.09-29.31-43.23a52.41,52.41,0,0,1,28.24,27.56,52.18,52.18,0,1,0-73.08,66.31,66,66,0,0,0,19.47,3.71C545.76,178.71,557.41,149.19,556.42,123.17ZM464.6,122l-4.45,3.45s-1.45-19.41,17.29-34.58C493,78.29,515.49,81,515.49,81l-1.73,3.46s-17.95-1.91-32.61,9.14C465.09,105.71,464.6,122,464.6,122Zm11,6a31.87,31.87,0,1,1,31.87,31.87A31.87,31.87,0,0,1,475.59,128Z"/><path class="cls-1" d="M490.43,177.39a51.91,51.91,0,0,0,17,2.9A53.16,53.16,0,0,0,513,180c-1.11.07-2.21.17-3.35.17A68.34,68.34,0,0,1,490.43,177.39Z"/><path class="cls-1" d="M559.7,128.18A52.25,52.25,0,0,1,513,180c27.12-1.71,46.72-23.9,46.72-51.62C559.71,128.3,559.7,128.24,559.7,128.18Z"/><path class="cls-1" d="M99,173.17a43.48,43.48,0,0,0,9.87,4.22,51.84,51.84,0,0,1-8.17-3.58C100.16,173.6,99.58,173.39,99,173.17Z"/><path class="cls-1" d="M178.18,128.18A52.26,52.26,0,0,1,131.46,180c27.13-1.71,46.72-23.9,46.72-51.62Z"/><path class="cls-1" d="M178.13,127c0,.4,0,.79.05,1.19V128C178.18,127.69,178.14,127.34,178.13,127Z"/><path class="cls-1" d="M108.91,177.39a51.85,51.85,0,0,0,17,2.9,53.16,53.16,0,0,0,5.53-.3c-1.11.07-2.21.17-3.34.17A68.29,68.29,0,0,1,108.91,177.39Z"/><path class="cls-1" d="M173.85,107.55a51,51,0,0,1,2,5.47A51,51,0,0,0,173.85,107.55Z"/><path class="cls-1" d="M174.89,123.17c-.72-19-14.12-34.09-29.31-43.23a52.43,52.43,0,0,1,28.25,27.56,52.19,52.19,0,1,0-73.09,66.31,66,66,0,0,0,19.47,3.71C164.23,178.71,175.88,149.19,174.89,123.17ZM83.07,122l-4.45,3.45s-1.45-19.41,17.3-34.58C111.48,78.29,134,81,134,81l-1.73,3.46s-17.94-1.91-32.61,9.14C83.57,105.71,83.07,122,83.07,122Zm11,6a31.87,31.87,0,1,1,31.86,31.87A31.86,31.86,0,0,1,94.07,128Z"/><path class="cls-1" d="M644,97.19l-5.7-33-4.48-.1c-2.49-7.13-4.58-11.56-4.58-11.56s-33.59-6.89-63.73-12.92-87-2.58-87-2.58-2.1.62-6,1.56c1.35-10.94,2.14-21.26.62-22.81-3.41-3.44-14.3,1.73-22.46,11.2-2.64,3.06-5.7,10.1-8.41,17.41-7.36,1.09-15.69,2.14-24.9,3-13.43,1.22-41.45,2.44-72.23,3.4,2.06-14.12,4.35-32.86,2.26-35C344,12.37,333.06,17.54,324.9,27c-3.52,4.08-7.77,15.2-11,24.63-46.65,1.11-90.7,1.42-93,.06-4.31-2.58,77-50.24,77-50.24L289,0,187.38,46.53S34.94,64.62,22.88,70.65A21.66,21.66,0,0,0,18,74.07c-3.93.15-6.64.34-6.64.34S2.36,82.83.94,89.08c-2.09,9.16,0,19.53,0,19.53H3.72c-.21.83-.42,1.66-.65,2.51-5.16,19.81,3.45,46.51,3.45,46.51l61.15,2.58,11.65.39a56.13,56.13,0,1,1,101.31-33.29v.35a57.3,57.3,0,0,1-11.92,35.58c56.44,1.5,125.14,3,174.55,3,39.08,0,81.91-1.47,119.44-3.26a56.13,56.13,0,1,1,99.46-35.67v.35a58.23,58.23,0,0,1-8,29.94c7.27-.52,11.35-.83,11.35-.83s57.7-6.89,69.76-17.22c10.58-9.07,9.22-24.77,6.41-42.44ZM4.32,102.11s.11-11.73,1.16-15,6.39-9.29,6.39-9.29L26.15,78s-11,4.3-15.1,10.57C8.8,92,9,102.46,9,102.46Zm38.8,43.46H14.7L8.67,124l32.73-1.72a20,20,0,0,1,6.89,15.5C48.29,148.16,43.12,145.57,43.12,145.57ZM70.68,98.21,42.26,99.93,55.18,78.4l34.45-5.17Zm167-72.41c7.89-4.18,50.26-23.22,50.26-23.22l2.87.62S227.27,40.79,219.5,45.7s-7.27,3.69-11.78,2.95c-3.48-.57-3.43-4.35-3.43-4.35S229.74,30,237.63,25.8Zm189.6,110.3H199.87v-7.75H427.23Zm-230.81-37c-2.58.86-42.2-32.73-42.2-32.73l287.65-7.75L429.82,78.4S199,98.21,196.42,99.07ZM468.25,62.75c-16.43,4-34.13,35.46-34.13,35.46S448.6,62.09,458.3,54.33c11.48-9.18,35.12-9.47,63.54-6.89s75.41,11.49,75.41,11.49l8.26,10.86S494.67,56.25,468.25,62.75ZM620.62,92.44l-1.83-25,7.32-.25L628,92.44Z"/></g></g></g></svg>