<svg xmlns="http://www.w3.org/2000/svg" viewBox="0 0 640.26 202.08"><defs><style>.cls-1{fill:#1c1b1b;}</style></defs><g id="Layer_2" data-name="Layer 2"><g id="icon"><g id="transport_icon" data-name="transport icon"><path class="cls-1" d="M632.53,119c-1-.51-4.34-.75-8.42-.85.42-1.1.82-2.21,1.23-3.33a7.9,7.9,0,0,0,1.21.1c2.8,0,6.91.15,6.91.15l6.8-20.65-8.33-.16c.69-2.37,1.12-4,1.22-4.36.55-2.19-8.2-14.77-8.2-14.77S591,67.44,564.77,65.8s-61.26-2.74-61.26-2.74S461.38,19.3,436.77,6.17,264.45,4.53,251.32,7.26s-27.35,20.79-43.21,35-23,25.17-23,25.17-49.78.54-99.56,6S13.91,87.68,13.91,87.68l-1.14,3.63c-3.24.13-5.46.29-5.46.29s-7.09,5-7.3,17.29C-.23,122.36,6.7,127.4,6.7,127.4L19.13,127,25,139.05c-3.45.1-5.84.2-5.84.2s-3.59,1.52-3.24,8.57c.41,8.31,7.57,9,7.57,9s4.79.19,10.34.23L35.79,161l21.88,6.56L64,169.07a41.72,41.72,0,0,0,21.28,30.12,53.11,53.11,0,0,0,15.27,2.87c35.11.94,44.4-22.59,43.61-43.35-.58-15.15-11.26-27.18-23.37-34.47a41.69,41.69,0,0,1,26,38.62,44.89,44.89,0,0,1-.52,6.61l290.31-7.6c0,.24,0,.48,0,.73a41.66,41.66,0,0,0,21.58,36.5,52.77,52.77,0,0,0,15.52,3c35.1.94,44.4-22.59,43.61-43.35-.58-15.15-11.26-27.18-23.37-34.47a41.71,41.71,0,0,1,25.87,35.45l13.31-.35s70.05-18,80.7-23.09c6.74.09,15.56,0,18.16-1C636.28,133.64,635.54,120.41,632.53,119ZM631,95.9,632.12,112h-4.66L626.3,96.06ZM8.66,106c-1.95,3-1.81,12.07-1.81,12.07l-4-.3s.1-10.16,1-13,5.53-8,5.53-8l12.37.1S12.18,100.6,8.66,106ZM409.48,17.12c13.33,4.85,36.47,37.57,34.64,43s-103.94,4.37-103.94,4.37l-.36-51.06S389.42,9.83,409.48,17.12Zm-82.43-4-2.92,52.15s-103.2,9.1-96.64-.73c7.29-10.94,31-41.94,41.94-46.68S327.05,13.11,327.05,13.11ZM214.75,40.23c15.31-17.51,30.15-24.8,30.15-24.8s12.4-1,13.61,1.21-37.69,45.71-40.12,49.12S194,67.19,193.25,67.44A340.78,340.78,0,0,1,214.75,40.23ZM16.82,144l2.34-3,30.94.22.78,4Zm54.11,13.77-3.55,2.76S66.22,145.07,81.17,133c12.41-10,30.34-7.88,30.34-7.88l-1.38,2.76s-14.31-1.53-26,7.29C71.32,144.79,70.93,157.79,70.93,157.79Zm59.59,4.81a25.42,25.42,0,1,1-25.41-25.42A25.41,25.41,0,0,1,130.52,162.6Zm293.1-6.93-256,7.66v-8.76l259.33-7.66ZM444,157.79l-3.54,2.76S439.3,145.07,454.25,133c12.41-10,30.34-7.88,30.34-7.88l-1.38,2.76s-14.31-1.53-26,7.29C444.4,144.79,444,157.79,444,157.79Zm59.6,4.81a25.42,25.42,0,1,1-25.42-25.42A25.42,25.42,0,0,1,503.6,162.6ZM88.78,90,48.29,86.73C56,81.26,505.68,69.22,505.68,69.22l24.08,11Zm510,33.22,2.33-3,30.95.22.78,4Z"/></g></g></g></svg>